<svg width="297" height="67" viewBox="0 0 297 67" fill="none" xmlns="http://www.w3.org/2000/svg">
<path d="M44.024 54.576C41.336 54.576 38.76 54.224 36.296 53.52C33.832 52.784 31.848 51.84 30.344 50.688L32.984 44.832C34.424 45.856 36.12 46.704 38.072 47.376C40.056 48.016 42.056 48.336 44.072 48.336C45.608 48.336 46.84 48.192 47.768 47.904C48.728 47.584 49.432 47.152 49.88 46.608C50.328 46.064 50.552 45.44 50.552 44.736C50.552 43.84 50.2 43.136 49.496 42.624C48.792 42.08 47.864 41.648 46.712 41.328C45.56 40.976 44.28 40.656 42.872 40.368C41.496 40.048 40.104 39.664 38.696 39.216C37.32 38.768 36.056 38.192 34.904 37.488C33.752 36.784 32.808 35.856 32.072 34.704C31.368 33.552 31.016 32.08 31.016 30.288C31.016 28.368 31.528 26.624 32.552 25.056C33.608 23.456 35.176 22.192 37.256 21.264C39.368 20.304 42.008 19.824 45.176 19.824C47.288 19.824 49.368 20.08 51.416 20.592C53.464 21.072 55.272 21.808 56.84 22.8L54.44 28.704C52.872 27.808 51.304 27.152 49.736 26.736C48.168 26.288 46.632 26.064 45.128 26.064C43.624 26.064 42.392 26.24 41.432 26.592C40.472 26.944 39.784 27.408 39.368 27.984C38.952 28.528 38.744 29.168 38.744 29.904C38.744 30.768 39.096 31.472 39.8 32.016C40.504 32.528 41.432 32.944 42.584 33.264C43.736 33.584 45 33.904 46.376 34.224C47.784 34.544 49.176 34.912 50.552 35.328C51.96 35.744 53.24 36.304 54.392 37.008C55.544 37.712 56.472 38.64 57.176 39.792C57.912 40.944 58.28 42.4 58.28 44.16C58.28 46.048 57.752 47.776 56.696 49.344C55.64 50.912 54.056 52.176 51.944 53.136C49.864 54.096 47.224 54.576 44.024 54.576ZM73.6254 54.384C70.5854 54.384 68.2174 53.616 66.5214 52.08C64.8254 50.512 63.9774 48.192 63.9774 45.12V22.464H71.4654V45.024C71.4654 46.112 71.7534 46.96 72.3294 47.568C72.9054 48.144 73.6894 48.432 74.6814 48.432C75.8654 48.432 76.8734 48.112 77.7054 47.472L79.7214 52.752C78.9534 53.296 78.0254 53.712 76.9374 54C75.8814 54.256 74.7774 54.384 73.6254 54.384ZM59.9934 34.512V28.752H77.8974V34.512H59.9934ZM95.4159 54.384C92.6639 54.384 90.2159 53.808 88.0719 52.656C85.9599 51.504 84.2799 49.936 83.0319 47.952C81.8159 45.936 81.2079 43.648 81.2079 41.088C81.2079 38.496 81.8159 36.208 83.0319 34.224C84.2799 32.208 85.9599 30.64 88.0719 29.52C90.2159 28.368 92.6639 27.792 95.4159 27.792C98.1359 27.792 100.568 28.368 102.712 29.52C104.856 30.64 106.536 32.192 107.752 34.176C108.968 36.16 109.576 38.464 109.576 41.088C109.576 43.648 108.968 45.936 107.752 47.952C106.536 49.936 104.856 51.504 102.712 52.656C100.568 53.808 98.1359 54.384 95.4159 54.384ZM95.4159 48.24C96.6639 48.24 97.7839 47.952 98.7759 47.376C99.7679 46.8 100.552 45.984 101.128 44.928C101.704 43.84 101.992 42.56 101.992 41.088C101.992 39.584 101.704 38.304 101.128 37.248C100.552 36.192 99.7679 35.376 98.7759 34.8C97.7839 34.224 96.6639 33.936 95.4159 33.936C94.1679 33.936 93.0479 34.224 92.0559 34.8C91.0639 35.376 90.2639 36.192 89.6559 37.248C89.0799 38.304 88.7919 39.584 88.7919 41.088C88.7919 42.56 89.0799 43.84 89.6559 44.928C90.2639 45.984 91.0639 46.8 92.0559 47.376C93.0479 47.952 94.1679 48.24 95.4159 48.24ZM127.061 54.384C124.277 54.384 121.797 53.824 119.621 52.704C117.445 51.552 115.733 49.968 114.485 47.952C113.269 45.936 112.661 43.648 112.661 41.088C112.661 38.496 113.269 36.208 114.485 34.224C115.733 32.208 117.445 30.64 119.621 29.52C121.797 28.368 124.277 27.792 127.061 27.792C129.781 27.792 132.149 28.368 134.165 29.52C136.181 30.64 137.669 32.256 138.629 34.368L132.821 37.488C132.149 36.272 131.301 35.376 130.277 34.8C129.285 34.224 128.197 33.936 127.013 33.936C125.733 33.936 124.581 34.224 123.557 34.8C122.533 35.376 121.717 36.192 121.109 37.248C120.533 38.304 120.245 39.584 120.245 41.088C120.245 42.592 120.533 43.872 121.109 44.928C121.717 45.984 122.533 46.8 123.557 47.376C124.581 47.952 125.733 48.24 127.013 48.24C128.197 48.24 129.285 47.968 130.277 47.424C131.301 46.848 132.149 45.936 132.821 44.688L138.629 47.856C137.669 49.936 136.181 51.552 134.165 52.704C132.149 53.824 129.781 54.384 127.061 54.384ZM148.992 48.72L149.184 39.6L161.232 28.176H170.16L158.592 39.936L154.704 43.104L148.992 48.72ZM142.8 54V18.384H150.288V54H142.8ZM162.048 54L153.312 43.152L158.016 37.344L171.12 54H162.048Z" fill="#00BB41"/>
<path d="M175.015 54V20.4H181.447L195.751 44.112H192.343L206.407 20.4H212.791L212.887 54H205.591L205.543 31.584H206.887L195.655 50.448H192.151L180.679 31.584H182.311V54H175.015ZM236.171 54V48.96L235.691 47.856V38.832C235.691 37.232 235.195 35.984 234.203 35.088C233.243 34.192 231.755 33.744 229.739 33.744C228.363 33.744 227.003 33.968 225.659 34.416C224.347 34.832 223.227 35.408 222.299 36.144L219.611 30.912C221.019 29.92 222.715 29.152 224.699 28.608C226.683 28.064 228.699 27.792 230.747 27.792C234.683 27.792 237.739 28.72 239.915 30.576C242.091 32.432 243.179 35.328 243.179 39.264V54H236.171ZM228.299 54.384C226.283 54.384 224.555 54.048 223.115 53.376C221.675 52.672 220.571 51.728 219.803 50.544C219.035 49.36 218.651 48.032 218.651 46.56C218.651 45.024 219.019 43.68 219.755 42.528C220.523 41.376 221.723 40.48 223.355 39.84C224.987 39.168 227.115 38.832 229.739 38.832H236.603V43.2H230.555C228.795 43.2 227.579 43.488 226.907 44.064C226.267 44.64 225.947 45.36 225.947 46.224C225.947 47.184 226.315 47.952 227.051 48.528C227.819 49.072 228.859 49.344 230.171 49.344C231.419 49.344 232.539 49.056 233.531 48.48C234.523 47.872 235.243 46.992 235.691 45.84L236.843 49.296C236.299 50.96 235.307 52.224 233.867 53.088C232.427 53.952 230.571 54.384 228.299 54.384ZM260.516 54.384C257.476 54.384 255.108 53.616 253.412 52.08C251.716 50.512 250.868 48.192 250.868 45.12V22.464H258.356V45.024C258.356 46.112 258.644 46.96 259.22 47.568C259.796 48.144 260.58 48.432 261.572 48.432C262.756 48.432 263.764 48.112 264.596 47.472L266.612 52.752C265.844 53.296 264.916 53.712 263.828 54C262.772 54.256 261.668 54.384 260.516 54.384ZM246.884 34.512V28.752H264.788V34.512H246.884ZM282.835 54.384C279.891 54.384 277.299 53.808 275.059 52.656C272.851 51.504 271.139 49.936 269.923 47.952C268.707 45.936 268.099 43.648 268.099 41.088C268.099 38.496 268.691 36.208 269.875 34.224C271.091 32.208 272.739 30.64 274.819 29.52C276.899 28.368 279.251 27.792 281.875 27.792C284.403 27.792 286.675 28.336 288.691 29.424C290.739 30.48 292.355 32.016 293.539 34.032C294.723 36.016 295.315 38.4 295.315 41.184C295.315 41.472 295.299 41.808 295.267 42.192C295.235 42.544 295.203 42.88 295.171 43.2H274.195V38.832H291.234L288.355 40.128C288.355 38.784 288.083 37.616 287.539 36.624C286.995 35.632 286.243 34.864 285.283 34.32C284.323 33.744 283.203 33.456 281.923 33.456C280.643 33.456 279.507 33.744 278.515 34.32C277.555 34.864 276.803 35.648 276.259 36.672C275.715 37.664 275.443 38.848 275.443 40.224V41.376C275.443 42.784 275.747 44.032 276.355 45.12C276.995 46.176 277.875 46.992 278.995 47.568C280.147 48.112 281.491 48.384 283.027 48.384C284.403 48.384 285.603 48.176 286.627 47.76C287.683 47.344 288.643 46.72 289.507 45.888L293.491 50.208C292.307 51.552 290.819 52.592 289.027 53.328C287.235 54.032 285.171 54.384 282.835 54.384Z" fill="black"/>
<path d="M17.111 6.2819C17.7966 4.77426 18.5303 3.34152 19.2945 2C18.206 2.61873 17.5534 3.62216 17.2703 4.94548C-23.3088 64.9907 22.4368 60.9463 41.9069 64.17C43.8246 64.8329 45.854 65.4444 48 66C37.6392 48.5047 16.6556 18.1817 17.111 6.2819Z" fill="#00BB41"/>
<path d="M19.2945 2C9.00386 20.0652 4.23766 54.6706 48 66M19.2945 2C9.32883 7.66468 35.904 45.5745 48 66M19.2945 2C-30.5339 73.3532 35.904 58.6468 48 66" stroke="white"/>
<circle cx="291" cy="23" r="4.5" fill="#00BB41" stroke="black"/>
<circle cx="291.714" cy="22.2854" r="2.35714" fill="white" stroke="black"/>
<circle cx="273" cy="23" r="4.5" fill="#00BB41" stroke="black"/>
<circle cx="273.714" cy="22.2859" r="2.35714" fill="white" stroke="black"/>
</svg>
