<svg width="194" height="40" viewBox="0 0 194 40" fill="none" xmlns="http://www.w3.org/2000/svg">
<path d="M25.016 31.384C23.224 31.384 21.5067 31.1493 19.864 30.68C18.2213 30.1893 16.8987 29.56 15.896 28.792L17.656 24.888C18.616 25.5707 19.7467 26.136 21.048 26.584C22.3707 27.0107 23.704 27.224 25.048 27.224C26.072 27.224 26.8933 27.128 27.512 26.936C28.152 26.7227 28.6213 26.4347 28.92 26.072C29.2187 25.7093 29.368 25.2933 29.368 24.824C29.368 24.2267 29.1333 23.7573 28.664 23.416C28.1947 23.0533 27.576 22.7653 26.808 22.552C26.04 22.3173 25.1867 22.104 24.248 21.912C23.3307 21.6987 22.4027 21.4427 21.464 21.144C20.5467 20.8453 19.704 20.4613 18.936 19.992C18.168 19.5227 17.5387 18.904 17.048 18.136C16.5787 17.368 16.344 16.3867 16.344 15.192C16.344 13.912 16.6853 12.7493 17.368 11.704C18.072 10.6373 19.1173 9.79467 20.504 9.176C21.912 8.536 23.672 8.216 25.784 8.216C27.192 8.216 28.5787 8.38667 29.944 8.728C31.3093 9.048 32.5147 9.53867 33.56 10.2L31.96 14.136C30.9147 13.5387 29.8693 13.1013 28.824 12.824C27.7787 12.5253 26.7547 12.376 25.752 12.376C24.7493 12.376 23.928 12.4933 23.288 12.728C22.648 12.9627 22.1893 13.272 21.912 13.656C21.6347 14.0187 21.496 14.4453 21.496 14.936C21.496 15.512 21.7307 15.9813 22.2 16.344C22.6693 16.6853 23.288 16.9627 24.056 17.176C24.824 17.3893 25.6667 17.6027 26.584 17.816C27.5227 18.0293 28.4507 18.2747 29.368 18.552C30.3067 18.8293 31.16 19.2027 31.928 19.672C32.696 20.1413 33.3147 20.76 33.784 21.528C34.2747 22.296 34.52 23.2667 34.52 24.44C34.52 25.6987 34.168 26.8507 33.464 27.896C32.76 28.9413 31.704 29.784 30.296 30.424C28.9093 31.064 27.1493 31.384 25.016 31.384ZM44.7503 31.256C42.7236 31.256 41.1449 30.744 40.0143 29.72C38.8836 28.6747 38.3183 27.128 38.3183 25.08V9.976H43.3103V25.016C43.3103 25.7413 43.5023 26.3067 43.8863 26.712C44.2703 27.096 44.7929 27.288 45.4543 27.288C46.2436 27.288 46.9156 27.0747 47.4703 26.648L48.8143 30.168C48.3023 30.5307 47.6836 30.808 46.9583 31C46.2543 31.1707 45.5183 31.256 44.7503 31.256ZM35.6623 18.008V14.168H47.5983V18.008H35.6623ZM59.2773 31.256C57.4426 31.256 55.8106 30.872 54.3813 30.104C52.9733 29.336 51.8533 28.2907 51.0213 26.968C50.2106 25.624 49.8053 24.0987 49.8053 22.392C49.8053 20.664 50.2106 19.1387 51.0213 17.816C51.8533 16.472 52.9733 15.4267 54.3813 14.68C55.8106 13.912 57.4426 13.528 59.2773 13.528C61.0906 13.528 62.7119 13.912 64.1413 14.68C65.5706 15.4267 66.6906 16.4613 67.5013 17.784C68.3119 19.1067 68.7173 20.6427 68.7173 22.392C68.7173 24.0987 68.3119 25.624 67.5013 26.968C66.6906 28.2907 65.5706 29.336 64.1413 30.104C62.7119 30.872 61.0906 31.256 59.2773 31.256ZM59.2773 27.16C60.1093 27.16 60.8559 26.968 61.5173 26.584C62.1786 26.2 62.7013 25.656 63.0853 24.952C63.4693 24.2267 63.6613 23.3733 63.6613 22.392C63.6613 21.3893 63.4693 20.536 63.0853 19.832C62.7013 19.128 62.1786 18.584 61.5173 18.2C60.8559 17.816 60.1093 17.624 59.2773 17.624C58.4453 17.624 57.6986 17.816 57.0373 18.2C56.3759 18.584 55.8426 19.128 55.4373 19.832C55.0533 20.536 54.8613 21.3893 54.8613 22.392C54.8613 23.3733 55.0533 24.2267 55.4373 24.952C55.8426 25.656 56.3759 26.2 57.0373 26.584C57.6986 26.968 58.4453 27.16 59.2773 27.16ZM80.374 31.256C78.518 31.256 76.8647 30.8827 75.414 30.136C73.9633 29.368 72.822 28.312 71.99 26.968C71.1793 25.624 70.774 24.0987 70.774 22.392C70.774 20.664 71.1793 19.1387 71.99 17.816C72.822 16.472 73.9633 15.4267 75.414 14.68C76.8647 13.912 78.518 13.528 80.374 13.528C82.1873 13.528 83.766 13.912 85.11 14.68C86.454 15.4267 87.446 16.504 88.086 17.912L84.214 19.992C83.766 19.1813 83.2007 18.584 82.518 18.2C81.8567 17.816 81.1313 17.624 80.342 17.624C79.4887 17.624 78.7207 17.816 78.038 18.2C77.3553 18.584 76.8113 19.128 76.406 19.832C76.022 20.536 75.83 21.3893 75.83 22.392C75.83 23.3947 76.022 24.248 76.406 24.952C76.8113 25.656 77.3553 26.2 78.038 26.584C78.7207 26.968 79.4887 27.16 80.342 27.16C81.1313 27.16 81.8567 26.9787 82.518 26.616C83.2007 26.232 83.766 25.624 84.214 24.792L88.086 26.904C87.446 28.2907 86.454 29.368 85.11 30.136C83.766 30.8827 82.1873 31.256 80.374 31.256ZM94.9945 27.48L95.1225 21.4L103.155 13.784H109.107L101.395 21.624L98.8025 23.736L94.9945 27.48ZM90.8665 31V7.256H95.8585V31H90.8665ZM103.699 31L97.8745 23.768L101.011 19.896L109.747 31H103.699Z" fill="#00BB41"/>
<path d="M112.344 31V8.6H116.632L126.168 24.408H123.896L133.272 8.6H137.528L137.592 31H132.728L132.696 16.056H133.592L126.104 28.632H123.768L116.12 16.056H117.208V31H112.344ZM153.114 31V27.64L152.794 26.904V20.888C152.794 19.8213 152.463 18.9893 151.802 18.392C151.162 17.7947 150.17 17.496 148.826 17.496C147.909 17.496 147.002 17.6453 146.106 17.944C145.231 18.2213 144.485 18.6053 143.866 19.096L142.074 15.608C143.013 14.9467 144.143 14.4347 145.466 14.072C146.789 13.7093 148.133 13.528 149.498 13.528C152.122 13.528 154.159 14.1467 155.61 15.384C157.061 16.6213 157.786 18.552 157.786 21.176V31H153.114ZM147.866 31.256C146.522 31.256 145.37 31.032 144.41 30.584C143.45 30.1147 142.714 29.4853 142.202 28.696C141.69 27.9067 141.434 27.0213 141.434 26.04C141.434 25.016 141.679 24.12 142.17 23.352C142.682 22.584 143.482 21.9867 144.57 21.56C145.658 21.112 147.077 20.888 148.826 20.888H153.402V23.8H149.37C148.197 23.8 147.386 23.992 146.938 24.376C146.511 24.76 146.298 25.24 146.298 25.816C146.298 26.456 146.543 26.968 147.034 27.352C147.546 27.7147 148.239 27.896 149.114 27.896C149.946 27.896 150.693 27.704 151.354 27.32C152.015 26.9147 152.495 26.328 152.794 25.56L153.562 27.864C153.199 28.9733 152.538 29.816 151.578 30.392C150.618 30.968 149.381 31.256 147.866 31.256ZM169.344 31.256C167.317 31.256 165.739 30.744 164.608 29.72C163.477 28.6747 162.912 27.128 162.912 25.08V9.976H167.904V25.016C167.904 25.7413 168.096 26.3067 168.48 26.712C168.864 27.096 169.387 27.288 170.048 27.288C170.837 27.288 171.509 27.0747 172.064 26.648L173.408 30.168C172.896 30.5307 172.277 30.808 171.552 31C170.848 31.1707 170.112 31.256 169.344 31.256ZM160.256 18.008V14.168H172.192V18.008H160.256ZM184.223 31.256C182.26 31.256 180.532 30.872 179.039 30.104C177.567 29.336 176.426 28.2907 175.615 26.968C174.804 25.624 174.399 24.0987 174.399 22.392C174.399 20.664 174.794 19.1387 175.583 17.816C176.394 16.472 177.492 15.4267 178.879 14.68C180.266 13.912 181.834 13.528 183.583 13.528C185.268 13.528 186.783 13.8907 188.127 14.616C189.492 15.32 190.57 16.344 191.359 17.688C192.148 19.0107 192.543 20.6 192.543 22.456C192.543 22.648 192.532 22.872 192.511 23.128C192.49 23.3627 192.468 23.5867 192.447 23.8H178.463V20.888H189.823L187.903 21.752C187.903 20.856 187.722 20.0773 187.359 19.416C186.996 18.7547 186.495 18.2427 185.855 17.88C185.215 17.496 184.468 17.304 183.615 17.304C182.762 17.304 182.004 17.496 181.343 17.88C180.703 18.2427 180.202 18.7653 179.839 19.448C179.476 20.1093 179.295 20.8987 179.295 21.816V22.584C179.295 23.5227 179.498 24.3547 179.903 25.08C180.33 25.784 180.916 26.328 181.663 26.712C182.431 27.0747 183.327 27.256 184.351 27.256C185.268 27.256 186.068 27.1173 186.751 26.84C187.455 26.5627 188.095 26.1467 188.671 25.592L191.327 28.472C190.538 29.368 189.546 30.0613 188.351 30.552C187.156 31.0213 185.78 31.256 184.223 31.256Z" fill="black"/>
<path d="M10.2552 4.47547C10.6491 3.60387 11.0706 2.77557 11.5096 2C10.8843 2.3577 10.5094 2.93781 10.3468 3.70285C-12.9646 38.4165 13.3147 36.0783 24.4997 37.9421C25.6014 38.3253 26.7672 38.6788 28 39C22.0481 28.8855 9.99367 11.3551 10.2552 4.47547Z" fill="#00BB41"/>
<path d="M11.5096 2C5.59796 12.444 2.85994 32.4502 28 39M11.5096 2C5.78465 5.27489 21.0512 27.1915 28 39M11.5096 2C-17.1152 43.2511 21.0512 34.7489 28 39" stroke="#FFFEFE"/>
<circle cx="190.429" cy="10.5714" r="3.57144" fill="#00BB41"/>
<circle cx="190.939" cy="10.0604" r="2.04083" fill="white"/>
<circle cx="177.571" cy="10.5714" r="3.57144" fill="#00BB41"/>
<circle cx="178.082" cy="10.0613" r="2.04083" fill="white"/>
</svg>
