<svg width="151" height="40" viewBox="0 0 151 40" fill="none" xmlns="http://www.w3.org/2000/svg">
<path d="M47.016 32.384C45.224 32.384 43.5067 32.1493 41.864 31.68C40.2213 31.1893 38.8987 30.56 37.896 29.792L39.656 25.888C40.616 26.5707 41.7467 27.136 43.048 27.584C44.3707 28.0107 45.704 28.224 47.048 28.224C48.072 28.224 48.8933 28.128 49.512 27.936C50.152 27.7227 50.6213 27.4347 50.92 27.072C51.2187 26.7093 51.368 26.2933 51.368 25.824C51.368 25.2267 51.1333 24.7573 50.664 24.416C50.1947 24.0533 49.576 23.7653 48.808 23.552C48.04 23.3173 47.1867 23.104 46.248 22.912C45.3307 22.6987 44.4027 22.4427 43.464 22.144C42.5467 21.8453 41.704 21.4613 40.936 20.992C40.168 20.5227 39.5387 19.904 39.048 19.136C38.5787 18.368 38.344 17.3867 38.344 16.192C38.344 14.912 38.6853 13.7493 39.368 12.704C40.072 11.6373 41.1173 10.7947 42.504 10.176C43.912 9.536 45.672 9.216 47.784 9.216C49.192 9.216 50.5787 9.38667 51.944 9.728C53.3093 10.048 54.5147 10.5387 55.56 11.2L53.96 15.136C52.9147 14.5387 51.8693 14.1013 50.824 13.824C49.7787 13.5253 48.7547 13.376 47.752 13.376C46.7493 13.376 45.928 13.4933 45.288 13.728C44.648 13.9627 44.1893 14.272 43.912 14.656C43.6347 15.0187 43.496 15.4453 43.496 15.936C43.496 16.512 43.7307 16.9813 44.2 17.344C44.6693 17.6853 45.288 17.9627 46.056 18.176C46.824 18.3893 47.6667 18.6027 48.584 18.816C49.5227 19.0293 50.4507 19.2747 51.368 19.552C52.3067 19.8293 53.16 20.2027 53.928 20.672C54.696 21.1413 55.3147 21.76 55.784 22.528C56.2747 23.296 56.52 24.2667 56.52 25.44C56.52 26.6987 56.168 27.8507 55.464 28.896C54.76 29.9413 53.704 30.784 52.296 31.424C50.9093 32.064 49.1493 32.384 47.016 32.384ZM66.7503 32.256C64.7236 32.256 63.1449 31.744 62.0143 30.72C60.8836 29.6747 60.3183 28.128 60.3183 26.08V10.976H65.3103V26.016C65.3103 26.7413 65.5023 27.3067 65.8863 27.712C66.2703 28.096 66.7929 28.288 67.4543 28.288C68.2436 28.288 68.9156 28.0747 69.4703 27.648L70.8143 31.168C70.3023 31.5307 69.6836 31.808 68.9583 32C68.2543 32.1707 67.5183 32.256 66.7503 32.256ZM57.6623 19.008V15.168H69.5983V19.008H57.6623ZM81.2773 32.256C79.4426 32.256 77.8106 31.872 76.3813 31.104C74.9733 30.336 73.8533 29.2907 73.0213 27.968C72.2106 26.624 71.8053 25.0987 71.8053 23.392C71.8053 21.664 72.2106 20.1387 73.0213 18.816C73.8533 17.472 74.9733 16.4267 76.3813 15.68C77.8106 14.912 79.4426 14.528 81.2773 14.528C83.0906 14.528 84.7119 14.912 86.1413 15.68C87.5706 16.4267 88.6906 17.4613 89.5013 18.784C90.3119 20.1067 90.7173 21.6427 90.7173 23.392C90.7173 25.0987 90.3119 26.624 89.5013 27.968C88.6906 29.2907 87.5706 30.336 86.1413 31.104C84.7119 31.872 83.0906 32.256 81.2773 32.256ZM81.2773 28.16C82.1093 28.16 82.8559 27.968 83.5173 27.584C84.1786 27.2 84.7013 26.656 85.0853 25.952C85.4693 25.2267 85.6613 24.3733 85.6613 23.392C85.6613 22.3893 85.4693 21.536 85.0853 20.832C84.7013 20.128 84.1786 19.584 83.5173 19.2C82.8559 18.816 82.1093 18.624 81.2773 18.624C80.4453 18.624 79.6986 18.816 79.0373 19.2C78.3759 19.584 77.8426 20.128 77.4373 20.832C77.0533 21.536 76.8613 22.3893 76.8613 23.392C76.8613 24.3733 77.0533 25.2267 77.4373 25.952C77.8426 26.656 78.3759 27.2 79.0373 27.584C79.6986 27.968 80.4453 28.16 81.2773 28.16ZM102.374 32.256C100.518 32.256 98.8647 31.8827 97.414 31.136C95.9633 30.368 94.822 29.312 93.99 27.968C93.1793 26.624 92.774 25.0987 92.774 23.392C92.774 21.664 93.1793 20.1387 93.99 18.816C94.822 17.472 95.9633 16.4267 97.414 15.68C98.8647 14.912 100.518 14.528 102.374 14.528C104.187 14.528 105.766 14.912 107.11 15.68C108.454 16.4267 109.446 17.504 110.086 18.912L106.214 20.992C105.766 20.1813 105.201 19.584 104.518 19.2C103.857 18.816 103.131 18.624 102.342 18.624C101.489 18.624 100.721 18.816 100.038 19.2C99.3553 19.584 98.8113 20.128 98.406 20.832C98.022 21.536 97.83 22.3893 97.83 23.392C97.83 24.3947 98.022 25.248 98.406 25.952C98.8113 26.656 99.3553 27.2 100.038 27.584C100.721 27.968 101.489 28.16 102.342 28.16C103.131 28.16 103.857 27.9787 104.518 27.616C105.201 27.232 105.766 26.624 106.214 25.792L110.086 27.904C109.446 29.2907 108.454 30.368 107.11 31.136C105.766 31.8827 104.187 32.256 102.374 32.256ZM115.473 32.256C114.62 32.256 113.884 31.968 113.265 31.392C112.668 30.7947 112.369 30.0373 112.369 29.12C112.369 28.2027 112.668 27.4667 113.265 26.912C113.884 26.336 114.62 26.048 115.473 26.048C116.348 26.048 117.084 26.336 117.681 26.912C118.279 27.4667 118.577 28.2027 118.577 29.12C118.577 30.0373 118.279 30.7947 117.681 31.392C117.084 31.968 116.348 32.256 115.473 32.256Z" fill="#00FF59"/>
<path d="M121.96 32V14.784H126.952V32H121.96ZM124.456 12.384C123.539 12.384 122.792 12.1173 122.216 11.584C121.64 11.0507 121.352 10.3893 121.352 9.6C121.352 8.81067 121.64 8.14933 122.216 7.616C122.792 7.08267 123.539 6.816 124.456 6.816C125.374 6.816 126.12 7.072 126.696 7.584C127.272 8.07467 127.56 8.71467 127.56 9.504C127.56 10.336 127.272 11.0293 126.696 11.584C126.142 12.1173 125.395 12.384 124.456 12.384ZM139.777 32.256C137.943 32.256 136.311 31.872 134.881 31.104C133.473 30.336 132.353 29.2907 131.521 27.968C130.711 26.624 130.305 25.0987 130.305 23.392C130.305 21.664 130.711 20.1387 131.521 18.816C132.353 17.472 133.473 16.4267 134.881 15.68C136.311 14.912 137.943 14.528 139.777 14.528C141.591 14.528 143.212 14.912 144.641 15.68C146.071 16.4267 147.191 17.4613 148.001 18.784C148.812 20.1067 149.217 21.6427 149.217 23.392C149.217 25.0987 148.812 26.624 148.001 27.968C147.191 29.2907 146.071 30.336 144.641 31.104C143.212 31.872 141.591 32.256 139.777 32.256ZM139.777 28.16C140.609 28.16 141.356 27.968 142.017 27.584C142.679 27.2 143.201 26.656 143.585 25.952C143.969 25.2267 144.161 24.3733 144.161 23.392C144.161 22.3893 143.969 21.536 143.585 20.832C143.201 20.128 142.679 19.584 142.017 19.2C141.356 18.816 140.609 18.624 139.777 18.624C138.945 18.624 138.199 18.816 137.537 19.2C136.876 19.584 136.343 20.128 135.937 20.832C135.553 21.536 135.361 22.3893 135.361 23.392C135.361 24.3733 135.553 25.2267 135.937 25.952C136.343 26.656 136.876 27.2 137.537 27.584C138.199 27.968 138.945 28.16 139.777 28.16Z" fill="#FF7B00"/>
<circle cx="146.429" cy="11.5714" r="3.57144" fill="#00BB41"/>
<circle cx="146.939" cy="11.0604" r="2.04083" fill="white"/>
<circle cx="133.571" cy="11.5714" r="3.57144" fill="#00BB41"/>
<circle cx="134.082" cy="11.0613" r="2.04083" fill="white"/>
<path d="M18.1684 13.2031L24.7964 24.1862L18.1684 35.1694H6.10209L0.999851 24.1862L6.10207 13.2031H18.1684Z" fill="#44FF00"/>
<path d="M12.0503 24.1862L18.1684 13.2031M12.0503 24.1862L18.1684 35.1694M12.0503 24.1862H0.999852M18.1684 13.2031L24.7964 24.1862L18.1684 35.1694M18.1684 13.2031H6.10207L0.999852 24.1862M18.1684 35.1694H6.10209L0.999852 24.1862" stroke="white"/>
<path d="M19.8314 35.1704L13.2034 24.1873L19.8314 13.2041H31.8977L36.9999 24.1873L31.8977 35.1704H19.8314Z" fill="#44FF00"/>
<path d="M25.9495 24.1873L19.8314 35.1704M25.9495 24.1873L19.8314 13.2041M25.9495 24.1873H36.9999M19.8314 35.1704L13.2034 24.1873L19.8314 13.2041M19.8314 35.1704H31.8977L36.9999 24.1873M19.8314 13.2041H31.8977L36.9999 24.1873" stroke="white"/>
<path d="M9.54224 24.4731L18.9998 18.6948L28.4574 24.4731V34.9926L18.9998 39.4408L9.54224 34.9926V24.4731Z" fill="#FF7B00"/>
<path d="M18.9998 29.807L9.54224 24.4731M18.9998 29.807L28.4574 24.4731M18.9998 29.807V39.4408M9.54224 24.4731L18.9998 18.6948L28.4574 24.4731M9.54224 24.4731V34.9926L18.9998 39.4408M28.4574 24.4731V34.9926L18.9998 39.4408" stroke="white"/>
<path d="M10.7627 6.77831L20.2203 1L29.6779 6.77831V17.2978L20.2203 21.7459L10.7627 17.2978V6.77831Z" fill="#FF7B00"/>
<path d="M20.2203 12.1121L10.7627 6.77831M20.2203 12.1121L29.6779 6.77831M20.2203 12.1121V21.7459M10.7627 6.77831L20.2203 1L29.6779 6.77831M10.7627 6.77831V17.2978L20.2203 21.7459M29.6779 6.77831V17.2978L20.2203 21.7459" stroke="white"/>
</svg>
